<svg width="30" height="30" viewBox="0 0 30 30" fill="none" xmlns="http://www.w3.org/2000/svg">
<path d="M10 22.5H11.875V20H14.375V18.125H11.875V15.625H10V18.125H7.5V20H10V22.5ZM16.25 21.5625H22.5V19.6875H16.25V21.5625ZM16.25 18.4375H22.5V16.5625H16.25V18.4375ZM17.625 13.6875L19.375 11.9375L21.125 13.6875L22.4375 12.375L20.6875 10.5625L22.4375 8.8125L21.125 7.5L19.375 9.25L17.625 7.5L16.3125 8.8125L18.0625 10.5625L16.3125 12.375L17.625 13.6875ZM7.8125 11.5H14.0625V9.625H7.8125V11.5ZM6.25 26.25C5.5625 26.25 4.97375 26.0054 4.48375 25.5163C3.99375 25.0271 3.74917 24.4383 3.75 23.75V6.25C3.75 5.5625 3.995 4.97417 4.485 4.485C4.975 3.99583 5.56334 3.75083 6.25 3.75H23.75C24.4375 3.75 25.0263 3.995 25.5163 4.485C26.0063 4.975 26.2508 5.56333 26.25 6.25V23.75C26.25 24.4375 26.0054 25.0263 25.5163 25.5163C25.0271 26.0063 24.4383 26.2508 23.75 26.25H6.25Z" fill="#0459E1"/>
</svg>
