<svg width="40" height="40" viewBox="0 0 40 40" fill="none" xmlns="http://www.w3.org/2000/svg">
<path d="M33.75 11.25H20.4172L16.0828 8C15.6494 7.67665 15.1235 7.50134 14.5828 7.5H6.25C5.58696 7.5 4.95107 7.76339 4.48223 8.23223C4.01339 8.70107 3.75 9.33696 3.75 10V31.25C3.75 31.913 4.01339 32.5489 4.48223 33.0178C4.95107 33.4866 5.58696 33.75 6.25 33.75H33.75C34.413 33.75 35.0489 33.4866 35.5178 33.0178C35.9866 32.5489 36.25 31.913 36.25 31.25V13.75C36.25 13.087 35.9866 12.4511 35.5178 11.9822C35.0489 11.5134 34.413 11.25 33.75 11.25ZM6.25 10H14.5828L17.9172 12.5L14.5828 15H6.25V10ZM33.75 31.25H6.25V17.5H14.5828C15.1235 17.4987 15.6494 17.3234 16.0828 17L20.4172 13.75H33.75V31.25Z" fill="#0345AF"/>
</svg>
