<svg width="32" height="32" viewBox="0 0 32 32" fill="none" xmlns="http://www.w3.org/2000/svg">
<path d="M21.3335 21.3333C21.3335 19.86 17.1548 18.6666 12.0002 18.6666M21.3335 21.3333C21.3335 22.8066 17.1548 24 12.0002 24C6.8455 24 2.66683 22.8066 2.66683 21.3333M21.3335 21.3333V27.916C21.3335 29.4346 17.1548 30.6666 12.0002 30.6666C6.8455 30.6666 2.66683 29.436 2.66683 27.916V21.3333M21.3335 21.3333C26.4322 21.3333 30.6668 20.0173 30.6668 18.6666V5.33329M12.0002 18.6666C6.8455 18.6666 2.66683 19.86 2.66683 21.3333M12.0002 18.6666C6.1095 18.6666 1.3335 17.3506 1.3335 16V9.33329M12.0002 6.66663C6.1095 6.66663 1.3335 7.85996 1.3335 9.33329M1.3335 9.33329C1.3335 10.8066 6.1095 12 12.0002 12C12.0002 13.3506 16.3375 14.6666 21.4362 14.6666C26.5335 14.6666 30.6668 13.3506 30.6668 12M30.6668 5.33329C30.6668 3.85996 26.5335 2.66663 21.4362 2.66663C16.3375 2.66663 12.2055 3.85996 12.2055 5.33329M30.6668 5.33329C30.6668 6.80663 26.5335 7.99996 21.4362 7.99996C16.3388 7.99996 12.2055 6.80663 12.2055 5.33329M12.2055 5.33329V18.888" stroke="#0345AF" stroke-width="2"/>
</svg>
