<svg width="20" height="20" viewBox="0 0 20 20" fill="none" xmlns="http://www.w3.org/2000/svg">
<path d="M18.3333 3.33073C19.25 3.33073 20 4.08073 20 4.9974V13.3307C20 14.2474 19.25 14.9974 18.3333 14.9974H5C4.08333 14.9974 3.33333 14.2474 3.33333 13.3307V3.33073C3.33333 2.41406 4.08333 1.66406 5 1.66406H10L11.6667 3.33073H18.3333ZM1.66667 4.9974V16.6641H16.6667V18.3307H1.66667C0.75 18.3307 0 17.5807 0 16.6641V4.9974H1.66667ZM5 4.9974V13.3307H18.3333V4.9974H5ZM11.6667 8.33073H13.3333V6.66406H15V8.33073H16.6667V9.9974H15V11.6641H13.3333V9.9974H11.6667V8.33073Z" fill="#5091FC"/>
</svg>
