<svg width="30" height="30" viewBox="0 0 30 30" fill="none" xmlns="http://www.w3.org/2000/svg">
<path d="M3.75 5.15625C3.75 3.345 5.22 1.875 7.03125 1.875H15.4688C17.28 1.875 18.75 3.345 18.75 5.15625V6.17437L24.3281 11.7525C24.9375 12.3619 25.4209 13.0854 25.7506 13.8817C26.0804 14.6779 26.2501 15.5313 26.25 16.3931V27.1875C26.25 27.4361 26.1512 27.6746 25.9754 27.8504C25.7996 28.0262 25.5611 28.125 25.3125 28.125C25.0639 28.125 24.8254 28.0262 24.6496 27.8504C24.4738 27.6746 24.375 27.4361 24.375 27.1875V16.3931C24.3751 15.7775 24.254 15.1679 24.0185 14.5991C23.783 14.0303 23.4377 13.5135 23.0025 13.0781L18.75 8.82562V13.6725L20.3513 15.2737C20.5273 15.4495 20.6263 15.6881 20.6265 15.9368C20.6266 16.1856 20.528 16.4243 20.3522 16.6003C20.1764 16.7764 19.9379 16.8753 19.6891 16.8755C19.4403 16.8757 19.2017 16.777 19.0256 16.6013L15.2213 12.795L14.4788 12.1463C14.1854 11.996 13.8481 11.9553 13.5275 12.0317C13.2068 12.108 12.924 12.2962 12.7298 12.5625C12.5356 12.8288 12.4428 13.1557 12.4682 13.4843C12.4936 13.8129 12.6354 14.1217 12.8681 14.355L15.6638 17.1487C15.7511 17.2358 15.8204 17.3393 15.8677 17.4532C15.915 17.5671 15.9393 17.6892 15.9394 17.8125V19.6875C15.9394 20.1848 16.1369 20.6617 16.4885 21.0133C16.8402 21.365 17.3171 21.5625 17.8144 21.5625C18.0627 21.563 18.3007 21.662 18.4761 21.8378C18.6515 22.0135 18.75 22.2517 18.75 22.5V24.8438C18.75 25.714 18.4043 26.5486 17.7889 27.1639C17.1736 27.7793 16.339 28.125 15.4688 28.125H7.03125C6.16101 28.125 5.32641 27.7793 4.71106 27.1639C4.0957 26.5486 3.75 25.714 3.75 24.8438V5.15625ZM16.875 23.9062V23.3194C16.3299 23.1782 15.8237 22.9161 15.3938 22.5525C14.7544 22.6785 14.1786 23.0226 13.7648 23.526C13.351 24.0294 13.1249 24.6609 13.125 25.3125V26.25H14.5312C14.6937 26.25 14.85 26.2344 15 26.2031V25.3125C15 25.0639 15.0988 24.8254 15.2746 24.6496C15.4504 24.4738 15.6889 24.375 15.9375 24.375H16.8281C16.8581 24.225 16.8738 24.0687 16.875 23.9062ZM13.7006 17.8387L11.5444 15.6806C10.963 15.0995 10.6224 14.3202 10.5907 13.4988C10.5591 12.6773 10.8388 11.8742 11.3737 11.25H11.25C10.6449 11.2501 10.0489 11.3965 9.51271 11.6769C8.97654 11.9572 8.51616 12.3632 8.17088 12.86C7.8256 13.3569 7.60567 13.9299 7.52987 14.5302C7.45406 15.1305 7.52464 15.7402 7.73556 16.3073C7.94649 16.8744 8.2915 17.382 8.74116 17.7869C9.19081 18.1917 9.73174 18.4817 10.3178 18.6322C10.9038 18.7827 11.5176 18.7891 12.1066 18.6509C12.6957 18.5128 13.2426 18.2341 13.7006 17.8387ZM9.375 4.6875V3.75H7.96875C7.80625 3.75 7.65 3.76563 7.5 3.79688V4.6875C7.5 4.93614 7.40123 5.1746 7.22541 5.35041C7.0496 5.52623 6.81114 5.625 6.5625 5.625H5.67188C5.64063 5.775 5.625 5.93125 5.625 6.09375V7.5H6.5625C7.30842 7.5 8.02379 7.20368 8.55124 6.67624C9.07868 6.14879 9.375 5.43342 9.375 4.6875ZM6.5625 22.5H5.625V23.9062C5.625 24.0687 5.64063 24.225 5.67188 24.375H6.5625C6.81114 24.375 7.0496 24.4738 7.22541 24.6496C7.40123 24.8254 7.5 25.0639 7.5 25.3125V26.2031C7.65 26.2331 7.80625 26.2488 7.96875 26.25H9.375V25.3125C9.375 24.5666 9.07868 23.8512 8.55124 23.3238C8.02379 22.7963 7.30842 22.5 6.5625 22.5ZM15 4.6875V3.79688C14.8456 3.76615 14.6886 3.75045 14.5312 3.75H13.125V4.6875C13.125 5.43342 13.4213 6.14879 13.9488 6.67624C14.4762 7.20368 15.1916 7.5 15.9375 7.5H16.875V6.09375C16.875 5.93125 16.8594 5.775 16.8281 5.625H15.9375C15.6889 5.625 15.4504 5.52623 15.2746 5.35041C15.0988 5.1746 15 4.93614 15 4.6875Z" fill="#0459E1"/>
</svg>
