<svg width="40" height="40" viewBox="0 0 40 40" fill="none" xmlns="http://www.w3.org/2000/svg">
<path d="M24.5887 16.6667C26.1987 16.6667 27.5054 17.9733 27.5054 19.5833V25H27.4987V25.4167C27.4987 25.7482 27.367 26.0661 27.1326 26.3005C26.8982 26.535 26.5802 26.6667 26.2487 26.6667C25.9172 26.6667 25.5992 26.535 25.3648 26.3005C25.1304 26.0661 24.9987 25.7482 24.9987 25.4167V21.6667H25.0054V19.5833C25.0054 19.4728 24.9615 19.3668 24.8833 19.2887C24.8052 19.2106 24.6992 19.1667 24.5887 19.1667H15.4187C15.3082 19.1667 15.2022 19.2106 15.1241 19.2887C15.0459 19.3668 15.002 19.4728 15.002 19.5833V25H14.9987V25.4167C14.9987 25.7482 14.867 26.0661 14.6326 26.3005C14.3982 26.535 14.0802 26.6667 13.7487 26.6667C13.4172 26.6667 13.0992 26.535 12.8648 26.3005C12.6304 26.0661 12.4987 25.7482 12.4987 25.4167V21.6667H12.502V19.5833C12.502 17.9733 13.807 16.6667 15.4187 16.6667H24.5887ZM34.1654 19.5833V25.4167C34.1654 25.7482 34.2971 26.0661 34.5315 26.3005C34.7659 26.535 35.0838 26.6667 35.4154 26.6667C35.7469 26.6667 36.0648 26.535 36.2992 26.3005C36.5337 26.0661 36.6654 25.7482 36.6654 25.4167V19.5833C36.6654 18.8098 36.3581 18.0679 35.8111 17.5209C35.2641 16.974 34.5222 16.6667 33.7487 16.6667H28.1237C28.6954 17.3583 29.0687 18.22 29.1537 19.1667H33.7487C33.8592 19.1667 33.9652 19.2106 34.0433 19.2887C34.1215 19.3668 34.1654 19.4728 34.1654 19.5833ZM3.33203 25.4167C3.33203 25.7482 3.46373 26.0661 3.69815 26.3005C3.93257 26.535 4.25051 26.6667 4.58203 26.6667C4.91355 26.6667 5.23149 26.535 5.46591 26.3005C5.70034 26.0661 5.83203 25.7482 5.83203 25.4167V19.5833C5.83203 19.4728 5.87593 19.3668 5.95407 19.2887C6.03221 19.2106 6.13819 19.1667 6.2487 19.1667H10.8537C10.9368 18.2485 11.2959 17.3769 11.8837 16.6667H6.2487C5.47515 16.6667 4.73328 16.974 4.1863 17.5209C3.63932 18.0679 3.33203 18.8098 3.33203 19.5833V25.4167ZM19.9987 5C21.3248 5 22.5965 5.52678 23.5342 6.46447C24.4719 7.40215 24.9987 8.67392 24.9987 10C24.9987 11.3261 24.4719 12.5979 23.5342 13.5355C22.5965 14.4732 21.3248 15 19.9987 15C18.6726 15 17.4008 14.4732 16.4632 13.5355C15.5255 12.5979 14.9987 11.3261 14.9987 10C14.9987 8.67392 15.5255 7.40215 16.4632 6.46447C17.4008 5.52678 18.6726 5 19.9987 5ZM19.9987 7.5C19.3357 7.5 18.6998 7.76339 18.2309 8.23223C17.7621 8.70107 17.4987 9.33696 17.4987 10C17.4987 10.663 17.7621 11.2989 18.2309 11.7678C18.6998 12.2366 19.3357 12.5 19.9987 12.5C20.6617 12.5 21.2976 12.2366 21.7665 11.7678C22.2353 11.2989 22.4987 10.663 22.4987 10C22.4987 9.33696 22.2353 8.70107 21.7665 8.23223C21.2976 7.76339 20.6617 7.5 19.9987 7.5ZM30.832 6.66667C31.9371 6.66667 32.9969 7.10565 33.7783 7.88705C34.5597 8.66846 34.9987 9.72826 34.9987 10.8333C34.9987 11.9384 34.5597 12.9982 33.7783 13.7796C32.9969 14.561 31.9371 15 30.832 15C29.727 15 28.6672 14.561 27.8858 13.7796C27.1044 12.9982 26.6654 11.9384 26.6654 10.8333C26.6654 9.72826 27.1044 8.66846 27.8858 7.88705C28.6672 7.10565 29.727 6.66667 30.832 6.66667ZM30.832 9.16667C30.39 9.16667 29.9661 9.34226 29.6535 9.65482C29.341 9.96738 29.1654 10.3913 29.1654 10.8333C29.1654 11.2754 29.341 11.6993 29.6535 12.0118C29.9661 12.3244 30.39 12.5 30.832 12.5C31.2741 12.5 31.698 12.3244 32.0105 12.0118C32.3231 11.6993 32.4987 11.2754 32.4987 10.8333C32.4987 10.3913 32.3231 9.96738 32.0105 9.65482C31.698 9.34226 31.2741 9.16667 30.832 9.16667ZM9.16536 6.66667C10.2704 6.66667 11.3302 7.10565 12.1116 7.88705C12.893 8.66846 13.332 9.72826 13.332 10.8333C13.332 11.9384 12.893 12.9982 12.1116 13.7796C11.3302 14.561 10.2704 15 9.16536 15C8.0603 15 7.00049 14.561 6.21909 13.7796C5.43768 12.9982 4.9987 11.9384 4.9987 10.8333C4.9987 9.72826 5.43768 8.66846 6.21909 7.88705C7.00049 7.10565 8.0603 6.66667 9.16536 6.66667ZM9.16536 9.16667C8.72334 9.16667 8.29941 9.34226 7.98685 9.65482C7.67429 9.96738 7.4987 10.3913 7.4987 10.8333C7.4987 11.2754 7.67429 11.6993 7.98685 12.0118C8.29941 12.3244 8.72334 12.5 9.16536 12.5C9.60739 12.5 10.0313 12.3244 10.3439 12.0118C10.6564 11.6993 10.832 11.2754 10.832 10.8333C10.832 10.3913 10.6564 9.96738 10.3439 9.65482C10.0313 9.34226 9.60739 9.16667 9.16536 9.16667ZM4.58203 28.3333C4.25051 28.3333 3.93257 28.465 3.69815 28.6994C3.46373 28.9339 3.33203 29.2518 3.33203 29.5833V30.4167C3.33203 32.0743 3.99051 33.664 5.16261 34.8361C6.33472 36.0082 7.92443 36.6667 9.58203 36.6667H30.4154C32.073 36.6667 33.6627 36.0082 34.8348 34.8361C36.0069 33.664 36.6654 32.0743 36.6654 30.4167V29.5833C36.6654 29.2518 36.5337 28.9339 36.2992 28.6994C36.0648 28.465 35.7469 28.3333 35.4154 28.3333H4.58203ZM9.58203 34.1667C8.65964 34.1666 7.76961 33.8267 7.0821 33.2117C6.3946 32.5968 5.95785 31.75 5.85536 30.8333H34.142C34.0395 31.75 33.6028 32.5968 32.9153 33.2117C32.2278 33.8267 31.3378 34.1666 30.4154 34.1667H9.58203Z" fill="#011E4B"/>
</svg>
