<svg width="100" height="100" viewBox="0 0 100 100" fill="none" xmlns="http://www.w3.org/2000/svg">
<circle cx="50" cy="50" r="50" fill="#E6EFFF"/>
<ellipse cx="46" cy="61.5" rx="18" ry="16.5" fill="white"/>
<path d="M27.9375 58.75V34.6875C27.9375 33.5272 28.3984 32.4144 29.2189 31.5939C30.0394 30.7734 31.1522 30.3125 32.3125 30.3125C33.4728 30.3125 34.5856 30.7734 35.4061 31.5939C36.2266 32.4144 36.6875 33.5272 36.6875 34.6875V50M36.6875 50V25.9375C36.6875 24.7772 37.1484 23.6644 37.9689 22.8439C38.7894 22.0234 39.9022 21.5625 41.0625 21.5625C42.2228 21.5625 43.3356 22.0234 44.1561 22.8439C44.9766 23.6644 45.4375 24.7772 45.4375 25.9375V47.8125M54.1875 47.9492V28.125C54.1875 26.9647 54.6484 25.8519 55.4689 25.0314C56.2894 24.2109 57.4022 23.75 58.5625 23.75C59.7228 23.75 60.8356 24.2109 61.6561 25.0314C62.4766 25.8519 62.9375 26.9647 62.9375 28.125V58.75M45.4375 47.8125V21.5625C45.4375 20.4022 45.8984 19.2894 46.7189 18.4689C47.5394 17.6484 48.6522 17.1875 49.8125 17.1875C50.9728 17.1875 52.0856 17.6484 52.9061 18.4689C53.7266 19.2894 54.1875 20.4022 54.1875 21.5625V47.8125" fill="white"/>
<path d="M27.9375 58.75V34.6875C27.9375 33.5272 28.3984 32.4144 29.2189 31.5939C30.0394 30.7734 31.1522 30.3125 32.3125 30.3125C33.4728 30.3125 34.5856 30.7734 35.4061 31.5939C36.2266 32.4144 36.6875 33.5272 36.6875 34.6875V50V25.9375C36.6875 24.7772 37.1484 23.6644 37.9689 22.8439C38.7894 22.0234 39.9022 21.5625 41.0625 21.5625C42.2228 21.5625 43.3356 22.0234 44.1561 22.8439C44.9766 23.6644 45.4375 24.7772 45.4375 25.9375V47.8125V21.5625C45.4375 20.4022 45.8984 19.2894 46.7189 18.4689C47.5394 17.6484 48.6522 17.1875 49.8125 17.1875C50.9728 17.1875 52.0856 17.6484 52.9061 18.4689C53.7266 19.2894 54.1875 20.4022 54.1875 21.5625V47.8125M54.1875 47.9492V28.125C54.1875 26.9647 54.6484 25.8519 55.4689 25.0314C56.2894 24.2109 57.4022 23.75 58.5625 23.75C59.7228 23.75 60.8356 24.2109 61.6561 25.0314C62.4766 25.8519 62.9375 26.9647 62.9375 28.125V58.75" stroke="#1E72FB" stroke-width="2.5" stroke-linecap="round" stroke-linejoin="round"/>
<path d="M27.9375 58.75C27.9375 74.8008 36.6875 82.8125 48.7188 82.8125C60.75 82.8125 65.6322 77.3985 68.4062 70.7813L75.6127 51.0938C76.5232 48.626 76.1104 46.3373 73.9898 45.1328C71.868 43.927 69.0803 44.5477 67.9318 46.7297L62.9375 58.75" fill="white"/>
<path d="M27.9375 58.75C27.9375 74.8008 36.6875 82.8125 48.7188 82.8125C60.75 82.8125 65.6322 77.3985 68.4062 70.7813L75.6127 51.0938C76.5232 48.626 76.1104 46.3373 73.9898 45.1328C71.868 43.927 69.0803 44.5477 67.9318 46.7297L62.9375 58.75" stroke="#1E72FB" stroke-width="2.5" stroke-linecap="round" stroke-linejoin="round"/>
</svg>
