<svg width="28" height="21" viewBox="0 0 28 21" fill="none" xmlns="http://www.w3.org/2000/svg">
<path d="M12.005 3.71684L2.12336 15.5002C1.91962 15.7522 1.81182 16.0379 1.81068 16.3289C1.80954 16.62 1.9151 16.9061 2.11686 17.1589C2.31861 17.4118 2.60954 17.6225 2.96068 17.77C3.31183 17.9176 3.71096 17.997 4.11836 18.0002H23.8817C24.2891 17.997 24.6882 17.9176 25.0394 17.77C25.3905 17.6225 25.6814 17.4118 25.8832 17.1589C26.085 16.9061 26.1905 16.62 26.1894 16.3289C26.1882 16.0379 26.0804 15.7522 25.8767 15.5002L15.995 3.71684C15.787 3.47193 15.4942 3.26944 15.1448 3.12891C14.7953 2.98838 14.401 2.91455 14 2.91455C13.599 2.91455 13.2047 2.98838 12.8553 3.12891C12.5058 3.26944 12.213 3.47193 12.005 3.71684Z" fill="#D1D1D6" stroke="#D1D1D6" stroke-linecap="round" stroke-linejoin="round"/>
</svg>
