<svg width="30" height="30" viewBox="0 0 30 30" fill="none" xmlns="http://www.w3.org/2000/svg">
<g clip-path="url(#clip0_11911_178908)">
<path d="M20.625 11.25C20.625 12.7418 20.0324 14.1726 18.9775 15.2275C17.9226 16.2824 16.4918 16.875 15 16.875C13.5082 16.875 12.0774 16.2824 11.0225 15.2275C9.96763 14.1726 9.375 12.7418 9.375 11.25C9.375 9.75816 9.96763 8.32742 11.0225 7.27252C12.0774 6.21763 13.5082 5.625 15 5.625C16.4918 5.625 17.9226 6.21763 18.9775 7.27252C20.0324 8.32742 20.625 9.75816 20.625 11.25Z" fill="#636366"/>
<path d="M3.75 0C2.75544 0 1.80161 0.395088 1.09835 1.09835C0.395088 1.80161 0 2.75544 0 3.75L0 26.25C0 27.2446 0.395088 28.1984 1.09835 28.9016C1.80161 29.6049 2.75544 30 3.75 30H26.25C27.2446 30 28.1984 29.6049 28.9016 28.9016C29.6049 28.1984 30 27.2446 30 26.25V3.75C30 2.75544 29.6049 1.80161 28.9016 1.09835C28.1984 0.395088 27.2446 0 26.25 0L3.75 0ZM26.25 1.875C26.7473 1.875 27.2242 2.07254 27.5758 2.42417C27.9275 2.77581 28.125 3.25272 28.125 3.75V26.25C28.125 26.7473 27.9275 27.2242 27.5758 27.5758C27.2242 27.9275 26.7473 28.125 26.25 28.125V26.25C26.25 24.375 24.375 18.75 15 18.75C5.625 18.75 3.75 24.375 3.75 26.25V28.125C3.25272 28.125 2.77581 27.9275 2.42417 27.5758C2.07254 27.2242 1.875 26.7473 1.875 26.25V3.75C1.875 3.25272 2.07254 2.77581 2.42417 2.42417C2.77581 2.07254 3.25272 1.875 3.75 1.875H26.25Z" fill="#636366"/>
</g>
<defs>
<clipPath id="clip0_11911_178908">
<rect width="30" height="30" fill="white"/>
</clipPath>
</defs>
</svg>
