<svg width="27" height="27" viewBox="0 0 27 27" fill="none" xmlns="http://www.w3.org/2000/svg">
<path d="M11.3365 3.57612C11.8867 1.30796 15.1133 1.30796 15.6635 3.57612C15.7461 3.91687 15.908 4.2333 16.1359 4.49967C16.3639 4.76603 16.6515 4.97481 16.9754 5.10901C17.2993 5.2432 17.6503 5.29902 17.9999 5.27191C18.3494 5.24481 18.6877 5.13556 18.987 4.95304C20.98 3.73887 23.2624 6.01996 22.0482 8.01429C21.866 8.31351 21.7569 8.65152 21.7299 9.00083C21.7028 9.35015 21.7586 9.70091 21.8926 10.0246C22.0267 10.3483 22.2352 10.6358 22.5013 10.8638C22.7673 11.0917 23.0834 11.2537 23.4239 11.3365C25.692 11.8867 25.692 15.1133 23.4239 15.6635C23.0831 15.7461 22.7667 15.908 22.5003 16.1359C22.234 16.3639 22.0252 16.6515 21.891 16.9754C21.7568 17.2993 21.701 17.6503 21.7281 17.9999C21.7552 18.3494 21.8644 18.6877 22.047 18.987C23.2611 20.98 20.98 23.2624 18.9857 22.0482C18.6865 21.866 18.3485 21.7569 17.9992 21.7299C17.6499 21.7028 17.2991 21.7586 16.9754 21.8926C16.6517 22.0267 16.3642 22.2352 16.1362 22.5013C15.9083 22.7673 15.7463 23.0834 15.6635 23.4239C15.1133 25.692 11.8867 25.692 11.3365 23.4239C11.2539 23.0831 11.092 22.7667 10.8641 22.5003C10.6361 22.234 10.3485 22.0252 10.0246 21.891C9.70067 21.7568 9.34966 21.701 9.00011 21.7281C8.65056 21.7552 8.31235 21.8644 8.013 22.047C6.01996 23.2611 3.73758 20.98 4.95175 18.9857C5.13401 18.6865 5.24309 18.3485 5.27012 17.9992C5.29716 17.6499 5.2414 17.2991 5.10736 16.9754C4.97332 16.6517 4.76479 16.3642 4.49873 16.1362C4.23266 15.9083 3.91656 15.7463 3.57612 15.6635C1.30796 15.1133 1.30796 11.8867 3.57612 11.3365C3.91687 11.2539 4.2333 11.092 4.49967 10.8641C4.76603 10.6361 4.97481 10.3485 5.10901 10.0246C5.2432 9.70067 5.29902 9.34966 5.27191 9.00011C5.24481 8.65056 5.13556 8.31235 4.95304 8.013C3.73887 6.01996 6.01996 3.73758 8.01429 4.95175C9.30596 5.73708 10.98 5.04217 11.3365 3.57612Z" stroke="#011E4B" stroke-width="2" stroke-linecap="round" stroke-linejoin="round"/>
<path d="M9.625 13.5C9.625 14.5277 10.0333 15.5133 10.76 16.24C11.4867 16.9667 12.4723 17.375 13.5 17.375C14.5277 17.375 15.5133 16.9667 16.24 16.24C16.9667 15.5133 17.375 14.5277 17.375 13.5C17.375 12.4723 16.9667 11.4867 16.24 10.76C15.5133 10.0333 14.5277 9.625 13.5 9.625C12.4723 9.625 11.4867 10.0333 10.76 10.76C10.0333 11.4867 9.625 12.4723 9.625 13.5Z" stroke="#011E4B" stroke-width="2" stroke-linecap="round" stroke-linejoin="round"/>
</svg>