<svg width="25" height="28" viewBox="0 0 25 28" fill="none" xmlns="http://www.w3.org/2000/svg">
<path d="M1.1665 5.75C1.1665 7.89029 5.79325 9.625 11.4998 9.625C17.2064 9.625 21.8332 7.89029 21.8332 5.75M1.1665 5.75C1.1665 3.60971 5.79325 1.875 11.4998 1.875C17.2064 1.875 21.8332 3.60971 21.8332 5.75M1.1665 5.75V13.5M21.8332 5.75V10.9167M1.1665 13.5C1.1665 15.6403 5.79325 17.375 11.4998 17.375C12.0359 17.375 12.5616 17.3595 13.0757 17.3298M1.1665 13.5V21.25C1.1665 23.3903 5.79325 25.125 11.4998 25.125C11.9545 25.125 12.4014 25.1134 12.8393 25.0927M23.1248 17.375H19.8957C19.3818 17.375 18.889 17.5791 18.5257 17.9425C18.1623 18.3058 17.9582 18.7986 17.9582 19.3125C17.9582 19.8264 18.1623 20.3192 18.5257 20.6825C18.889 21.0459 19.3818 21.25 19.8957 21.25H21.1873C21.7012 21.25 22.194 21.4541 22.5574 21.8175C22.9207 22.1808 23.1248 22.6736 23.1248 23.1875C23.1248 23.7014 22.9207 24.1942 22.5574 24.5575C22.194 24.9209 21.7012 25.125 21.1873 25.125H17.9582M20.5415 25.125V26.4167M20.5415 16.0833V17.375" stroke="#011E4B" stroke-width="2" stroke-linecap="round" stroke-linejoin="round"/>
</svg>
