<svg width="29" height="27" viewBox="0 0 29 27" fill="none" xmlns="http://www.w3.org/2000/svg">
<path d="M13.8479 1.50544C14.1147 0.96482 14.8856 0.96482 15.1524 1.50544L18.6063 8.50385C18.7123 8.71853 18.9171 8.86733 19.154 8.90176L26.8772 10.024C27.4738 10.1107 27.7121 10.8439 27.2803 11.2647L21.6918 16.7122C21.5203 16.8793 21.4421 17.1201 21.4826 17.356L22.8019 25.048C22.9038 25.6422 22.2801 26.0953 21.7465 25.8148L14.8386 22.1831C14.6267 22.0717 14.3736 22.0717 14.1617 22.1831L7.25383 25.8148C6.72021 26.0953 6.09653 25.6422 6.19844 25.048L7.51772 17.356C7.55819 17.1201 7.47996 16.8793 7.30853 16.7122L1.71997 11.2647C1.28825 10.8439 1.52648 10.1107 2.12309 10.024L9.84629 8.90176C10.0832 8.86733 10.288 8.71853 10.394 8.50385L13.8479 1.50544Z" stroke="#011E4B" stroke-width="2" stroke-linejoin="round"/>
</svg>
