<svg width="29" height="27" viewBox="0 0 29 27" fill="none" xmlns="http://www.w3.org/2000/svg">
<g clip-path="url(#clip0_0_1)">
<path d="M21.5 21.375C22.5355 21.375 23.375 20.5355 23.375 19.5C23.375 18.4645 22.5355 17.625 21.5 17.625C20.4645 17.625 19.625 18.4645 19.625 19.5C19.625 20.5355 20.4645 21.375 21.5 21.375Z" stroke="#011E4B" stroke-width="1.5" stroke-linecap="round" stroke-linejoin="round"/>
<path d="M26.125 21.375C26.0418 21.5635 26.017 21.7726 26.0537 21.9754C26.0905 22.1781 26.1872 22.3652 26.3312 22.5125L26.3688 22.55C26.485 22.6661 26.5772 22.804 26.6401 22.9557C26.703 23.1074 26.7354 23.2701 26.7354 23.4344C26.7354 23.5986 26.703 23.7613 26.6401 23.9131C26.5772 24.0648 26.485 24.2027 26.3688 24.3187C26.2527 24.435 26.1148 24.5272 25.9631 24.5901C25.8113 24.653 25.6486 24.6854 25.4844 24.6854C25.3201 24.6854 25.1574 24.653 25.0057 24.5901C24.854 24.5272 24.7161 24.435 24.6 24.3187L24.5625 24.2812C24.4152 24.1372 24.2281 24.0405 24.0254 24.0037C23.8226 23.967 23.6135 23.9918 23.425 24.075C23.2401 24.1542 23.0825 24.2858 22.9714 24.4535C22.8604 24.6211 22.8008 24.8176 22.8 25.0187V25.125C22.8 25.4565 22.6683 25.7745 22.4339 26.0089C22.1995 26.2433 21.8815 26.375 21.55 26.375C21.2185 26.375 20.9005 26.2433 20.6661 26.0089C20.4317 25.7745 20.3 25.4565 20.3 25.125V25.0687C20.2952 24.8619 20.2282 24.6612 20.1078 24.4929C19.9874 24.3246 19.8192 24.1964 19.625 24.125C19.4365 24.0418 19.2274 24.017 19.0246 24.0537C18.8219 24.0905 18.6348 24.1872 18.4875 24.3312L18.45 24.3688C18.3339 24.485 18.196 24.5772 18.0443 24.6401C17.8926 24.703 17.7299 24.7354 17.5656 24.7354C17.4014 24.7354 17.2387 24.703 17.0869 24.6401C16.9352 24.5772 16.7973 24.485 16.6812 24.3688C16.565 24.2527 16.4728 24.1148 16.4099 23.9631C16.347 23.8113 16.3146 23.6486 16.3146 23.4844C16.3146 23.3201 16.347 23.1574 16.4099 23.0057C16.4728 22.854 16.565 22.7161 16.6812 22.6L16.7187 22.5625C16.8628 22.4152 16.9595 22.2281 16.9963 22.0254C17.033 21.8226 17.0082 21.6135 16.925 21.425C16.8458 21.2401 16.7142 21.0825 16.5465 20.9714C16.3789 20.8604 16.1824 20.8008 15.9813 20.8H15.875C15.5435 20.8 15.2255 20.6683 14.9911 20.4339C14.7567 20.1995 14.625 19.8815 14.625 19.55C14.625 19.2185 14.7567 18.9005 14.9911 18.6661C15.2255 18.4317 15.5435 18.3 15.875 18.3H15.9312C16.1381 18.2952 16.3388 18.2282 16.5071 18.1078C16.6754 17.9874 16.8036 17.8192 16.875 17.625C16.9582 17.4365 16.983 17.2274 16.9463 17.0246C16.9095 16.8219 16.8128 16.6348 16.6687 16.4875L16.6313 16.45C16.515 16.3339 16.4228 16.196 16.3599 16.0443C16.297 15.8926 16.2646 15.7299 16.2646 15.5656C16.2646 15.4014 16.297 15.2387 16.3599 15.0869C16.4228 14.9352 16.515 14.7973 16.6313 14.6812C16.7473 14.565 16.8852 14.4728 17.0369 14.4099C17.1887 14.347 17.3514 14.3146 17.5156 14.3146C17.6799 14.3146 17.8426 14.347 17.9943 14.4099C18.146 14.4728 18.2839 14.565 18.4 14.6812L18.4375 14.7187C18.5848 14.8628 18.7719 14.9595 18.9746 14.9963C19.1774 15.033 19.3865 15.0082 19.575 14.925H19.625C19.8099 14.8458 19.9675 14.7142 20.0786 14.5465C20.1896 14.3789 20.2492 14.1824 20.25 13.9813V13.875C20.25 13.5435 20.3817 13.2255 20.6161 12.9911C20.8505 12.7567 21.1685 12.625 21.5 12.625C21.8315 12.625 22.1495 12.7567 22.3839 12.9911C22.6183 13.2255 22.75 13.5435 22.75 13.875V13.9312C22.7508 14.1324 22.8104 14.3289 22.9214 14.4965C23.0325 14.6642 23.1901 14.7958 23.375 14.875C23.5635 14.9582 23.7726 14.983 23.9754 14.9463C24.1781 14.9095 24.3652 14.8128 24.5125 14.6687L24.55 14.6313C24.6661 14.515 24.804 14.4228 24.9557 14.3599C25.1074 14.297 25.2701 14.2646 25.4344 14.2646C25.5986 14.2646 25.7613 14.297 25.9131 14.3599C26.0648 14.4228 26.2027 14.515 26.3187 14.6313C26.435 14.7473 26.5272 14.8852 26.5901 15.0369C26.653 15.1887 26.6854 15.3514 26.6854 15.5156C26.6854 15.6799 26.653 15.8426 26.5901 15.9943C26.5272 16.146 26.435 16.2839 26.3187 16.4L26.2812 16.4375C26.1372 16.5848 26.0405 16.7719 26.0037 16.9746C25.967 17.1774 25.9918 17.3865 26.075 17.575V17.625C26.1542 17.8099 26.2858 17.9675 26.4535 18.0786C26.6211 18.1896 26.8176 18.2492 27.0187 18.25H27.125C27.4565 18.25 27.7745 18.3817 28.0089 18.6161C28.2433 18.8505 28.375 19.1685 28.375 19.5C28.375 19.8315 28.2433 20.1495 28.0089 20.3839C27.7745 20.6183 27.4565 20.75 27.125 20.75H27.0687C26.8676 20.7508 26.6711 20.8104 26.5035 20.9214C26.3358 21.0325 26.2042 21.1901 26.125 21.375V21.375Z" stroke="#011E4B" stroke-width="1.5" stroke-linecap="round" stroke-linejoin="round"/>
</g>
<path d="M13.5 15.5381C7.03479 15.5381 2.89079 17.7573 1 20.9997M18.6357 6.78C18.6357 9.69606 16.3363 12.06 13.5 12.06C10.6637 12.06 8.36435 9.69606 8.36435 6.78C8.36435 3.86394 10.6637 1.5 13.5 1.5C16.3363 1.5 18.6357 3.86394 18.6357 6.78Z" stroke="#011E4B" stroke-width="2" stroke-linecap="round"/>
<defs>
<clipPath id="clip0_0_1">
<rect width="15" height="15" fill="white" transform="translate(14 12)"/>
</clipPath>
</defs>
</svg>
