<svg width="27" height="27" viewBox="0 0 27 27" fill="none" xmlns="http://www.w3.org/2000/svg">
<path d="M16.1976 10.7987C16.3782 11.3207 16.9477 11.5974 17.4696 11.4168C17.9915 11.2361 18.2682 10.6666 18.0876 10.1447L16.1976 10.7987ZM15.0501 8.89303L15.094 7.89399C15.0794 7.89335 15.0647 7.89303 15.0501 7.89303V8.89303ZM11.9501 13.6291V14.6291V13.6291ZM15.0501 18.3652L15.0501 19.3652L15.0501 18.3652ZM11.9501 18.3652L11.9062 19.3643C11.9208 19.3649 11.9354 19.3652 11.9501 19.3652V18.3652ZM10.8026 16.4595C10.622 15.9376 10.0525 15.6609 9.53059 15.8415C9.00867 16.0221 8.73197 16.5916 8.91258 17.1136L10.8026 16.4595ZM14.5001 6.52497C14.5001 5.97269 14.0524 5.52497 13.5001 5.52497C12.9478 5.52497 12.5001 5.97269 12.5001 6.52497H14.5001ZM12.5001 8.89303C12.5001 9.44531 12.9478 9.89303 13.5001 9.89303C14.0524 9.89303 14.5001 9.44531 14.5001 8.89303H12.5001ZM14.5001 18.3652C14.5001 17.813 14.0524 17.3652 13.5001 17.3652C12.9478 17.3652 12.5001 17.813 12.5001 18.3652H14.5001ZM12.5001 20.7333C12.5001 21.2856 12.9478 21.7333 13.5001 21.7333C14.0524 21.7333 14.5001 21.2856 14.5001 20.7333H12.5001ZM18.0876 10.1447C17.8691 9.51325 17.469 8.9599 16.936 8.55772L15.7314 10.1543C15.9442 10.3148 16.1076 10.5386 16.1976 10.7987L18.0876 10.1447ZM16.936 8.55772C16.4027 8.15537 15.7612 7.92334 15.094 7.89399L15.0062 9.89206C15.2663 9.9035 15.5189 9.99395 15.7314 10.1543L16.936 8.55772ZM15.0501 7.89303H11.9501V9.89303H15.0501V7.89303ZM11.9501 7.89303C11.0623 7.89303 10.2146 8.25242 9.59251 8.88603L11.0196 10.2872C11.2696 10.0326 11.6047 9.89303 11.9501 9.89303V7.89303ZM9.59251 8.88603C8.97103 9.51901 8.6251 10.3737 8.6251 11.2611H10.6251C10.6251 10.8924 10.7691 10.5424 11.0196 10.2872L9.59251 8.88603ZM8.6251 11.2611C8.6251 12.1485 8.97103 13.0032 9.59251 13.6361L11.0196 12.235C10.7691 11.9798 10.6251 11.6298 10.6251 11.2611H8.6251ZM9.59251 13.6361C10.2146 14.2697 11.0623 14.6291 11.9501 14.6291L11.9501 12.6291C11.6047 12.6291 11.2696 12.4895 11.0196 12.235L9.59251 13.6361ZM11.9501 14.6291H15.0501V12.6291H11.9501V14.6291ZM15.0501 14.6291C15.3955 14.6291 15.7306 14.7687 15.9806 15.0233L17.4077 13.6221C16.7856 12.9885 15.9379 12.6291 15.0501 12.6291V14.6291ZM15.9806 15.0233C16.2311 15.2785 16.3751 15.6285 16.3751 15.9972H18.3751C18.3751 15.1098 18.0292 14.2551 17.4077 13.6221L15.9806 15.0233ZM16.3751 15.9972C16.3751 16.3659 16.2311 16.7159 15.9806 16.9711L17.4077 18.3723C18.0292 17.7393 18.3751 16.8846 18.3751 15.9972H16.3751ZM15.9806 16.9711C15.7306 17.2257 15.3955 17.3652 15.0501 17.3652L15.0501 19.3652C15.9379 19.3652 16.7856 19.0059 17.4077 18.3723L15.9806 16.9711ZM15.0501 17.3652H11.9501V19.3652H15.0501V17.3652ZM11.994 17.3662C11.7339 17.3548 11.4813 17.2643 11.2688 17.104L10.0642 18.7006C10.5975 19.1029 11.239 19.3349 11.9062 19.3643L11.994 17.3662ZM11.2688 17.104C11.056 16.9435 10.8926 16.7197 10.8026 16.4595L8.91258 17.1136C9.13108 17.745 9.53114 18.2984 10.0642 18.7006L11.2688 17.104ZM12.5001 6.52497V8.89303H14.5001V6.52497H12.5001ZM12.5001 18.3652V20.7333H14.5001V18.3652H12.5001ZM24.9001 13.5C24.9001 19.796 19.7961 24.9 13.5001 24.9V26.9C20.9007 26.9 26.9001 20.9006 26.9001 13.5H24.9001ZM13.5001 24.9C7.20405 24.9 2.1001 19.796 2.1001 13.5H0.100098C0.100098 20.9006 6.09948 26.9 13.5001 26.9V24.9ZM2.1001 13.5C2.1001 7.20393 7.20405 2.09998 13.5001 2.09998V0.0999756C6.09948 0.0999756 0.100098 6.09936 0.100098 13.5H2.1001ZM13.5001 2.09998C19.7961 2.09998 24.9001 7.20393 24.9001 13.5H26.9001C26.9001 6.09936 20.9007 0.0999756 13.5001 0.0999756V2.09998Z" fill="#011E4B"/>
</svg>
