<svg width="27" height="27" viewBox="0 0 27 27" fill="none" xmlns="http://www.w3.org/2000/svg">
<path d="M22.5417 1.875C23.9684 1.875 25.125 3.01575 25.125 4.42294L25.125 8.7724C25.125 10.1796 23.9684 11.3203 22.5417 11.3203H18.6667C17.2399 11.3203 16.0833 10.1796 16.0833 8.7724L16.0833 4.42294C16.0833 3.01575 17.2399 1.875 18.6667 1.875L22.5417 1.875Z" stroke="#011E4B" stroke-width="2" stroke-linecap="round" stroke-linejoin="round"/>
<path d="M4.45833 1.875C3.0316 1.875 1.875 3.01575 1.875 4.42294L1.87501 8.7724C1.87501 10.1796 3.03161 11.3203 4.45834 11.3203H8.33334C9.76008 11.3203 10.9167 10.1796 10.9167 8.7724L10.9167 4.42294C10.9167 3.01575 9.76007 1.875 8.33333 1.875L4.45833 1.875Z" stroke="#011E4B" stroke-width="2" stroke-linecap="round" stroke-linejoin="round"/>
<path d="M22.5417 15.6797C23.9684 15.6797 25.125 16.8205 25.125 18.2276V22.5771C25.125 23.9842 23.9684 25.125 22.5417 25.125H18.6667C17.2399 25.125 16.0833 23.9842 16.0833 22.5771L16.0833 18.2276C16.0833 16.8205 17.2399 15.6797 18.6667 15.6797H22.5417Z" stroke="#011E4B" stroke-width="2" stroke-linecap="round" stroke-linejoin="round"/>
<path d="M4.45834 15.6797C3.03161 15.6797 1.87501 16.8205 1.87501 18.2276L1.87501 22.5771C1.87501 23.9842 3.03161 25.125 4.45835 25.125H8.33335C9.76008 25.125 10.9167 23.9842 10.9167 22.5771L10.9167 18.2276C10.9167 16.8205 9.76008 15.6797 8.33334 15.6797H4.45834Z" stroke="#011E4B" stroke-width="2" stroke-linecap="round" stroke-linejoin="round"/>
</svg>
