<svg width="27" height="19" viewBox="0 0 27 19" fill="none" xmlns="http://www.w3.org/2000/svg">
<path d="M1.1001 17.5301C2.51918 15.1631 5.62934 13.5431 10.4816 13.5431C15.3339 13.5431 18.4441 15.1631 19.8631 17.5301M20.7609 11.7482C23.3305 13.033 24.6153 14.3178 25.9001 16.8874M18.0884 1.92773C19.2975 2.57815 20.1194 3.85531 20.1194 5.32443C20.1194 6.75111 19.3443 7.99675 18.1922 8.6632M14.336 5.32439C14.336 7.45313 12.6104 9.17881 10.4816 9.17881C8.35289 9.17881 6.6272 7.45313 6.6272 5.32439C6.6272 3.19565 8.35289 1.46997 10.4816 1.46997C12.6104 1.46997 14.336 3.19565 14.336 5.32439Z" stroke="#011E4B" stroke-width="2" stroke-linecap="round"/>
</svg>