<svg width="20" height="20" viewBox="0 0 20 20" fill="none" xmlns="http://www.w3.org/2000/svg">
<path d="M11.6694 1.67188C13.1944 1.67115 14.6735 2.19326 15.8601 3.15115C17.0467 4.10903 17.869 5.44477 18.19 6.9356C18.5109 8.42643 18.311 9.98222 17.6236 11.3435C16.9362 12.7048 15.8029 13.7892 14.4127 14.416C13.9684 15.3985 13.2923 16.2585 12.4426 16.9222C11.5929 17.586 10.5949 18.0338 9.5341 18.2272C8.47333 18.4205 7.38148 18.3537 6.35221 18.0324C5.32293 17.7112 4.38693 17.1451 3.6245 16.3826C2.86206 15.6202 2.29593 14.6842 1.97467 13.6549C1.6534 12.6256 1.58659 11.5338 1.77995 10.473C1.97332 9.41224 2.4211 8.41421 3.08488 7.56449C3.74866 6.71478 4.60864 6.03874 5.59107 5.59438C6.11952 4.42512 6.97406 3.43313 8.05219 2.73738C9.13032 2.04164 10.3863 1.67168 11.6694 1.67188ZM8.33607 6.67188C7.00999 6.67188 5.73822 7.19866 4.80054 8.13634C3.86285 9.07402 3.33607 10.3458 3.33607 11.6719C3.33607 12.998 3.86285 14.2697 4.80054 15.2074C5.73822 16.1451 7.00999 16.6719 8.33607 16.6719C9.66215 16.6719 10.9339 16.1451 11.8716 15.2074C12.8093 14.2697 13.3361 12.998 13.3361 11.6719C13.3361 10.3458 12.8093 9.07402 11.8716 8.13634C10.9339 7.19866 9.66215 6.67188 8.33607 6.67188ZM9.1694 7.50521V8.33854H10.8361V10.0052H7.50274C7.39862 10.005 7.2982 10.0438 7.22125 10.114C7.14431 10.1841 7.09642 10.2805 7.08701 10.3842C7.0776 10.4879 7.10736 10.5914 7.17042 10.6742C7.23348 10.7571 7.32528 10.8133 7.42774 10.8319L7.50274 10.8385H9.1694C9.72194 10.8385 10.2518 11.058 10.6425 11.4487C11.0332 11.8394 11.2527 12.3693 11.2527 12.9219C11.2527 13.4744 11.0332 14.0043 10.6425 14.395C10.2518 14.7857 9.72194 15.0052 9.1694 15.0052V15.8385H7.50274V15.0052H5.83607V13.3385H9.1694C9.27353 13.3387 9.37395 13.2999 9.45089 13.2298C9.52783 13.1596 9.57573 13.0632 9.58513 12.9595C9.59454 12.8558 9.56478 12.7524 9.50172 12.6695C9.43866 12.5867 9.34686 12.5304 9.2444 12.5119L9.1694 12.5052H7.50274C6.9502 12.5052 6.4203 12.2857 6.0296 11.895C5.6389 11.5043 5.4194 10.9744 5.4194 10.4219C5.4194 9.86934 5.6389 9.33944 6.0296 8.94874C6.4203 8.55804 6.9502 8.33854 7.50274 8.33854V7.50521H9.1694ZM11.6694 3.33854C10.9632 3.3376 10.2648 3.48665 9.62047 3.77584C8.97616 4.06503 8.4006 4.48775 7.9319 5.01604C8.87379 4.95886 9.81708 5.10229 10.6994 5.43683C11.5817 5.77137 12.383 6.28941 13.0502 6.95669C13.7174 7.62397 14.2353 8.42529 14.5698 9.30765C14.9042 10.19 15.0475 11.1333 14.9902 12.0752C15.7479 11.4016 16.2829 10.5135 16.5243 9.5288C16.7656 8.54411 16.7019 7.5093 16.3416 6.56164C15.9813 5.61398 15.3414 4.79824 14.5068 4.22261C13.6723 3.64698 12.6824 3.33866 11.6686 3.33854H11.6694Z" fill="#02317D"/>
</svg>
