<svg width="40" height="40" viewBox="0 0 40 40" fill="none" xmlns="http://www.w3.org/2000/svg">
<g clip-path="url(#clip0_10324_161897)">
<path d="M11.2545 13.2616C11.0515 13.2616 10.8508 13.3058 10.6665 13.3911C10.4823 13.4764 10.3187 13.6008 10.1873 13.7556L0.333326 25.3616C-0.438674 26.2716 0.208126 27.6684 1.40133 27.668L38.6013 27.642C39.7937 27.6412 40.4393 26.2452 39.6677 25.336L31.5513 15.776L29.6593 17.8736L35.5765 24.844L4.42733 24.8652L11.9017 16.0612H18.2845C18.4517 15.5532 18.5997 15.0464 18.6765 14.5432C18.9455 14.103 19.2344 13.6753 19.5421 13.2612L11.2545 13.2616ZM35.9645 29.644L32.2933 29.6472L35.5777 33.5152L4.42773 33.5364L7.71573 29.6636L4.04053 29.6668L0.333326 34.032C-0.438674 34.9416 0.208126 36.3388 1.40133 36.3384L38.6013 36.3124C39.7937 36.3116 40.4393 34.9156 39.6677 34.0064L35.9645 29.644Z" fill="#011e4b"/>
<path d="M36.1447 0.349043C35.9214 0.125861 35.6186 0.000488281 35.3029 0.000488281C34.9872 0.000488281 34.6844 0.125861 34.4611 0.349043L20.5371 14.273C20.4211 14.389 20.3339 14.5234 20.2759 14.667L18.3739 21.3162C18.2867 21.591 18.4207 21.7082 18.7171 21.6174L25.3335 19.7246C25.4771 19.6666 25.6115 19.5798 25.7275 19.4634L39.6515 5.53944C39.8748 5.31613 40.0003 5.01325 40.0003 4.69744C40.0003 4.38163 39.8748 4.07876 39.6515 3.85544L36.1447 0.349043ZM33.1143 5.06344L34.9371 6.88624L24.8859 16.9382L23.0627 15.1146L33.1143 5.06344Z" fill="#011e4b"/>
</g>
<defs>
<clipPath id="clip0_10324_161897">
<rect width="40" height="40" fill="white"/>
</clipPath>
</defs>
</svg>
