<svg width="22" height="29" viewBox="0 0 22 29" fill="none" xmlns="http://www.w3.org/2000/svg">
<path d="M7 6.00004H5V10.6667M5 14.5858H17M5 18.5858H17M5 22.5858H9M5 8.91916H7M3 27.5858H19C19.5304 27.5858 20.0391 27.3751 20.4142 27C20.7893 26.625 21 26.1163 21 25.5858V3.58583C21 3.05539 20.7893 2.54669 20.4142 2.17161C20.0391 1.79654 19.5304 1.58583 19 1.58583H3C2.46957 1.58583 1.96086 1.79654 1.58579 2.17161C1.21071 2.54669 1 3.05539 1 3.58583V25.5858C1 26.1163 1.21071 26.625 1.58579 27C1.96086 27.3751 2.46957 27.5858 3 27.5858Z" stroke="#0345AF" stroke-width="1.5" stroke-linecap="round" stroke-linejoin="round"/>
<path d="M17 7.5C17.2761 7.5 17.5 7.27614 17.5 7C17.5 6.72386 17.2761 6.5 17 6.5C16.7239 6.5 16.5 6.72386 16.5 7C16.5 7.27614 16.7239 7.5 17 7.5Z" fill="#0345AF" stroke="#0345AF" stroke-width="0.75"/>
</svg>
