<svg width="48" height="48" viewBox="0 0 48 48" fill="none" xmlns="http://www.w3.org/2000/svg">
<path d="M14.9023 20.925L18.4023 19V33M21.8193 31.775C22.8693 32.65 23.7443 33 26.0193 33H26.5443C28.9943 33 31.0943 30.9 31.0943 28.45C31.0943 26 28.9943 23.9 26.5443 23.9H21.8193V19H31.0943" stroke="#0345AF" stroke-width="2.5" stroke-linecap="round" stroke-linejoin="round"/>
<path d="M12.8177 10.258V4.5M35.1837 10.258V4.5M8.09969 7.859C7.03969 7.859 6.17969 8.719 6.17969 9.779V41.58C6.17969 42.64 7.03969 43.499 8.09969 43.499H39.9007C40.9607 43.499 41.8207 42.639 41.8207 41.579V9.779C41.8207 8.719 40.9607 7.859 39.9007 7.859H8.10069H8.09969Z" stroke="#0345AF" stroke-width="2.5" stroke-linecap="round" stroke-linejoin="round"/>
</svg>
