<svg width="31" height="31" viewBox="0 0 31 31" fill="none" xmlns="http://www.w3.org/2000/svg">
<path fill-rule="evenodd" clip-rule="evenodd" d="M18.5806 15.9308C18.4025 15.427 18.0725 14.9909 17.6363 14.6824C17.2 14.374 16.6788 14.2083 16.1445 14.2083V13.5625H14.8529V14.2083C14.1677 14.2083 13.5106 14.4805 13.0262 14.965C12.5417 15.4494 12.2695 16.1065 12.2695 16.7917C12.2695 17.4768 12.5417 18.1339 13.0262 18.6184C13.5106 19.1028 14.1677 19.375 14.8529 19.375V21.9583C14.291 21.9583 13.8124 21.5999 13.6342 21.0974C13.6077 21.0152 13.5651 20.9392 13.5087 20.8737C13.4524 20.8083 13.3834 20.7548 13.3061 20.7165C13.2287 20.6782 13.1444 20.6558 13.0582 20.6506C12.972 20.6454 12.8856 20.6575 12.8042 20.6863C12.7228 20.715 12.648 20.7599 12.5842 20.818C12.5204 20.8762 12.4689 20.9466 12.4328 21.0251C12.3966 21.1035 12.3766 21.1884 12.3739 21.2747C12.3711 21.361 12.3857 21.447 12.4168 21.5276C12.5949 22.0313 12.9248 22.4674 13.3611 22.7759C13.7974 23.0844 14.3186 23.25 14.8529 23.25V23.8958H16.1445V23.25C16.8297 23.25 17.4868 22.9778 17.9712 22.4934C18.4557 22.0089 18.7279 21.3518 18.7279 20.6667C18.7279 19.9815 18.4557 19.3244 17.9712 18.84C17.4868 18.3555 16.8297 18.0833 16.1445 18.0833V15.5C16.4117 15.4999 16.6722 15.5827 16.8904 15.7369C17.1085 15.891 17.2735 16.1091 17.3626 16.3609C17.4196 16.5224 17.5385 16.6547 17.693 16.7285C17.7695 16.7651 17.8525 16.7863 17.9372 16.7908C18.0219 16.7953 18.1067 16.7831 18.1867 16.7549C18.2666 16.7266 18.3403 16.6829 18.4033 16.6262C18.4664 16.5695 18.5177 16.5009 18.5543 16.4244C18.5909 16.3479 18.612 16.2649 18.6166 16.1802C18.6211 16.0955 18.6089 16.0107 18.5806 15.9308ZM14.8529 15.5C14.5103 15.5 14.1818 15.6361 13.9395 15.8783C13.6973 16.1206 13.5612 16.4491 13.5612 16.7917C13.5612 17.1342 13.6973 17.4628 13.9395 17.705C14.1818 17.9472 14.5103 18.0833 14.8529 18.0833V15.5ZM16.1445 21.9583C16.4871 21.9583 16.8156 21.8222 17.0579 21.58C17.3001 21.3378 17.4362 21.0092 17.4362 20.6667C17.4362 20.3241 17.3001 19.9956 17.0579 19.7533C16.8156 19.5111 16.4871 19.375 16.1445 19.375V21.9583Z" fill="#011E4B"/>
<path fill-rule="evenodd" clip-rule="evenodd" d="M8.49431 5.56773C10.0792 4.79208 12.6793 3.875 15.5248 3.875C18.311 3.875 20.8426 4.75398 22.4191 5.51929L22.5082 5.56256C22.9836 5.79765 23.3672 6.01981 23.6372 6.2L21.2515 9.6875C26.7514 15.3101 30.9997 27.1231 15.5248 27.1231C0.0500367 27.1231 4.18402 15.5245 9.73172 9.6875L7.36152 6.2C7.54429 6.08052 7.77614 5.94167 8.05256 5.79442C8.18947 5.72079 8.33672 5.64458 8.49431 5.56773ZM19.7182 9.641L21.628 6.84906C19.8519 6.97694 17.7388 7.39415 15.7044 7.98315C14.2513 8.40294 12.6367 8.339 11.1416 8.06323C10.7648 7.99338 10.3906 7.91023 10.0198 7.81394L11.2598 9.63971C13.9174 10.5859 17.06 10.5859 19.7182 9.641ZM10.5138 10.7402C13.6235 11.9415 17.361 11.9415 20.4706 10.7389C21.7687 12.1072 22.8545 13.6622 23.6921 15.3521C24.5652 17.1333 25.0406 18.9139 24.9631 20.4484C24.8881 21.9293 24.3056 23.1945 22.9752 24.1348C21.5886 25.1145 19.2565 25.8314 15.5242 25.8314C11.7881 25.8314 9.44497 25.1268 8.04545 24.158C6.70535 23.2293 6.117 21.9816 6.03368 20.5207C5.9465 19.003 6.41149 17.2315 7.28143 15.438C8.11133 13.7278 9.26931 12.0816 10.5138 10.7402ZM9.77112 6.40408C10.2878 6.55779 10.8277 6.69148 11.3754 6.79287C12.7639 7.04862 14.1563 7.08608 15.3447 6.74185C16.7295 6.33843 18.1379 6.02115 19.562 5.79183C18.3736 5.43404 16.9838 5.16667 15.5242 5.16667C13.2993 5.16667 11.2242 5.78731 9.77112 6.40408Z" fill="#011E4B"/>
</svg>
