<svg width="41" height="40" viewBox="0 0 41 40" fill="none" xmlns="http://www.w3.org/2000/svg">
<path d="M35.5 18.5165V8.33317C35.5 7.44912 35.1488 6.60127 34.5237 5.97615C33.8986 5.35103 33.0507 4.99984 32.1667 4.99984H25.2C24.5 3.0665 22.6667 1.6665 20.5 1.6665C18.3333 1.6665 16.5 3.0665 15.8 4.99984H8.83333C7 4.99984 5.5 6.49984 5.5 8.33317V31.6665C5.5 32.5506 5.85119 33.3984 6.47631 34.0235C7.10143 34.6487 7.94928 34.9998 8.83333 34.9998H19.0167C21.1167 37.0665 23.9833 38.3332 27.1667 38.3332C33.6167 38.3332 38.8333 33.1165 38.8333 26.6665C38.8333 23.4832 37.5667 20.6165 35.5 18.5165ZM20.5 4.99984C21.4167 4.99984 22.1667 5.74984 22.1667 6.6665C22.1667 7.58317 21.4167 8.33317 20.5 8.33317C19.5833 8.33317 18.8333 7.58317 18.8333 6.6665C18.8333 5.74984 19.5833 4.99984 20.5 4.99984ZM8.83333 31.6665V8.33317H12.1667V11.6665H28.8333V8.33317H32.1667V16.1332C30.65 15.4165 28.9667 14.9998 27.1667 14.9998H12.1667V18.3332H19C18 19.2832 17.2333 20.4165 16.6333 21.6665H12.1667V24.9998H15.6333C15.55 25.5498 15.5 26.0998 15.5 26.6665C15.5 28.4665 15.9167 30.1498 16.6333 31.6665H8.83333ZM27.1667 34.9998C22.5667 34.9998 18.8333 31.2665 18.8333 26.6665C18.8333 22.0665 22.5667 18.3332 27.1667 18.3332C31.7667 18.3332 35.5 22.0665 35.5 26.6665C35.5 31.2665 31.7667 34.9998 27.1667 34.9998ZM28 27.0832L32.7667 29.8998L31.5167 31.9332L25.5 28.3332V19.9998H28V27.0832Z" fill="#011e4b"/>
</svg>
