<svg width="24" height="24" viewBox="0 0 24 24" fill="none" xmlns="http://www.w3.org/2000/svg">
<g clip-path="url(#clip0_11961_180511)">
<path d="M9.56966 10.4754L0.779576 18.7541C0.548382 18.9716 0.364974 19.2299 0.239838 19.5142C0.114702 19.7985 0.050293 20.1032 0.050293 20.411C0.050293 20.7188 0.114702 21.0235 0.239838 21.3078C0.364974 21.5921 0.548382 21.8504 0.779576 22.0679C1.24588 22.507 1.87824 22.7536 2.53759 22.7536C3.19695 22.7536 3.82931 22.507 4.29561 22.0679L13.0857 13.7869M18.4505 14.2143L23.272 18.7553C23.7382 19.1944 24 19.79 24 20.411C24 21.032 23.7382 21.6276 23.272 22.0667C22.8057 22.5058 22.1733 22.7524 21.514 22.7524C20.8546 22.7524 20.2223 22.5058 19.756 22.0667L12.0364 14.7974M5.44566 4.96838L2.80614 5.79508L0.170362 1.65574L1.92838 0L6.32467 2.48361L5.44566 4.96838ZM5.44566 4.96838L8.96418 8.2822" stroke="#011E4B" stroke-width="1.5" stroke-linecap="round" stroke-linejoin="round"/>
<path d="M9.56977 10.4754C8.52043 7.95435 8.72558 4.64639 10.8889 2.60892C13.0522 0.571447 17.0432 0.125311 19.2401 1.3677L15.4605 4.92742L15.1086 8.57027L18.9765 8.24006L22.7561 4.67918C24.0765 6.74943 23.6016 10.5082 21.4383 12.5445C19.2749 14.582 15.7639 14.7752 13.0871 13.7869" stroke="#011E4B" stroke-width="1.5" stroke-linecap="round" stroke-linejoin="round"/>
</g>
<defs>
<clipPath id="clip0_11961_180511">
<rect width="24" height="24" fill="white"/>
</clipPath>
</defs>
</svg>
