<svg width="40" height="40" viewBox="0 0 40 40" fill="none" xmlns="http://www.w3.org/2000/svg">
<circle cx="20" cy="20" r="20" fill="#1E72FB"/>
<g clip-path="url(#clip0_2604_28801)">
<path d="M25.3323 29.6031V27.4698C25.3323 26.3382 24.8828 25.253 24.0826 24.4528C23.2825 23.6526 22.1972 23.2031 21.0656 23.2031H12.5323C11.4007 23.2031 10.3155 23.6526 9.5153 24.4528C8.71515 25.253 8.26563 26.3382 8.26562 27.4698V29.6031" stroke="white" stroke-width="2" stroke-linecap="round" stroke-linejoin="round"/>
<path d="M16.7979 18.9367C19.1543 18.9367 21.0646 17.0264 21.0646 14.67C21.0646 12.3136 19.1543 10.4033 16.7979 10.4033C14.4415 10.4033 12.5312 12.3136 12.5312 14.67C12.5312 17.0264 14.4415 18.9367 16.7979 18.9367Z" stroke="white" stroke-width="2" stroke-linecap="round" stroke-linejoin="round"/>
<path d="M31.7313 29.6031V27.4698C31.7305 26.5244 31.4159 25.6061 30.8367 24.8589C30.2575 24.1118 29.4466 23.5781 28.5312 23.3418" stroke="white" stroke-width="2" stroke-linecap="round" stroke-linejoin="round"/>
<path d="M24.2656 10.542C25.1834 10.777 25.9969 11.3107 26.5778 12.0591C27.1587 12.8075 27.474 13.7279 27.474 14.6753C27.474 15.6227 27.1587 16.5431 26.5778 17.2915C25.9969 18.0399 25.1834 18.5737 24.2656 18.8087" stroke="white" stroke-width="2" stroke-linecap="round" stroke-linejoin="round"/>
</g>
<defs>
<clipPath id="clip0_2604_28801">
<rect width="25.6" height="25.6" fill="white" transform="translate(7.19922 7.20312)"/>
</clipPath>
</defs>
</svg>
